# xmcd CD database file
#
# Track frame offsets:
#	182
#	16042
#	33985
#	56452
#	72835
#	88752
#	101870
#	122527
#	143817
#	161807
#	178722
#
# Disc length: 2675 seconds
#
# Revision: 0
# Processed by: cddbd v1.5.1PL0 Copyright (c) Steve Scherf et al.
# Submitted via: CDex 1.51
#
DISCID=8e0a710b
DTITLE=Paolo Belli - Paolo Belli
DYEAR=1993
DGENRE=Blues
TTITLE0=Via di qua
TTITLE1=Showdown in the gulf
TTITLE2=Una grande Anima
TTITLE3=Baby come back
TTITLE4=Ahi ahi ahi
TTITLE5=Io solo un Jack
TTITLE6=R4
TTITLE7=Il blues all'alba
TTITLE8=Picchia duro
TTITLE9=Ninna nanna blues
TTITLE10=Tornerò da te
EXTD=YEAR: 1993
EXTT0=
EXTT1=
EXTT2=
EXTT3=
EXTT4=
EXTT5=
EXTT6=
EXTT7=
EXTT8=
EXTT9=
EXTT10=
PLAYORDER=
